inDegrees=no
num_controls=7
num_derivatives=13
num_iterations=100
num_multipliers=7
num_parameters=0
num_slacks=7
num_states=26
objective=0.445731
objective_accelerations=0.057042
objective_balance=0.003269
objective_effort=0.022511
objective_height=0.357382
objective_ligament=0.005525
solver_duration=1380.400601
status=Solve_Succeeded
success=true
DataType=double
version=3
OpenSimVersion=4.5
endheader
time	/jointset/ground_pelvis/pelvis_tilt/value	/jointset/ground_pelvis/pelvis_tx/value	/jointset/ground_pelvis/pelvis_ty/value	/jointset/hip_l/hip_flexion_l/value	/jointset/hip_l/hip_adduction_l/value	/jointset/hip_l/hip_rotation_l/value	/jointset/back/lumbar_extension/value	/jointset/patellofemoral_l/patellar_flexion_l/value	/jointset/knee_l/knee_flexion_l/value	/jointset/knee_l/knee_adduction_l/value	/jointset/knee_l/knee_rotation_l/value	/jointset/ankle_l/ankle_angle_l/value	/jointset/subtalar_l/subtalar_angle_l/value	/jointset/ground_pelvis/pelvis_tilt/speed	/jointset/ground_pelvis/pelvis_tx/speed	/jointset/ground_pelvis/pelvis_ty/speed	/jointset/hip_l/hip_flexion_l/speed	/jointset/hip_l/hip_adduction_l/speed	/jointset/hip_l/hip_rotation_l/speed	/jointset/back/lumbar_extension/speed	/jointset/patellofemoral_l/patellar_flexion_l/speed	/jointset/knee_l/knee_flexion_l/speed	/jointset/knee_l/knee_adduction_l/speed	/jointset/knee_l/knee_rotation_l/speed	/jointset/ankle_l/ankle_angle_l/speed	/jointset/subtalar_l/subtalar_angle_l/speed	/forceset/tau_hip_flexion_l	/forceset/tau_hip_adduction_l	/forceset/tau_hip_rotation_l	/forceset/tau_knee_flexion_l	/forceset/tau_ankle_angle_l	/forceset/tau_subtalar_angle_l	/forceset/tau_lumbar_extension	lambda_cid13_p0	lambda_cid13_p1	lambda_cid13_p2	lambda_cid13_p3	lambda_cid13_p4	lambda_cid13_p5	lambda_cid14_p0	/jointset/ground_pelvis/pelvis_tilt/accel	/jointset/ground_pelvis/pelvis_tx/accel	/jointset/ground_pelvis/pelvis_ty/accel	/jointset/hip_l/hip_flexion_l/accel	/jointset/hip_l/hip_adduction_l/accel	/jointset/hip_l/hip_rotation_l/accel	/jointset/back/lumbar_extension/accel	/jointset/patellofemoral_l/patellar_flexion_l/accel	/jointset/knee_l/knee_flexion_l/accel	/jointset/knee_l/knee_adduction_l/accel	/jointset/knee_l/knee_rotation_l/accel	/jointset/ankle_l/ankle_angle_l/accel	/jointset/subtalar_l/subtalar_angle_l/accel	gamma_cid13_p0	gamma_cid13_p1	gamma_cid13_p2	gamma_cid13_p3	gamma_cid13_p4	gamma_cid13_p5	gamma_cid14_p0
0.5	-0.3280299420942648	-0.03214595100625074	0.7617626181166344	1.080797036935588	-0.4373710429763374	-0.2217503351709989	-0.2542514952180888	0.8128235502376739	0.8128235502376729	-0.1263531779310395	-0.1586589130822189	0.120532040298514	-0.02626510972939654	-0.7448387453321802	-0.1993998242828016	-0.5262167133294554	2.431592482087358	-0.2085837645886165	0.7452130872686886	-0.1164661398697344	2.003919100373446	2.003919100373442	0.1330964183461307	-0.09047978615896436	0.4906584778670453	0.01397505506296083	-0.1635752802104444	0.0282931674725291	-0.01155993137718262	-0.2218229051639461	0.06572035313831651	0.0364090835244676	0.1636772542168119	-11.72939432039366	-16.79879888210869	5.814757113047958	-6.297955201495339	-522.3991582611629	-56.75739651668131	-24.87326914359067	0.7265565769264261	0.5850935542641512	-0.4625057295848077	-1.286902209012078	0.7445216256977524	-0.1864315855768837	1.092788478145329	-1.281473524332717	-1.281473524332716	0.0922781043571041	0.2110043411492439	-0.5113950947950252	0.5552454748259631	-5.601727486227345e-07	-4.109237345792255e-07	2.867221107454375e-06	1.561992045600458e-07	-6.416315269107988e-07	-4.720417183281872e-08	-4.544379631986733e-07
0.51	-0.3354400732029892	-0.03411046492417404	0.756478502118007	1.105043724389757	-0.4394207705534445	-0.2143061350135997	-0.2553627771202862	0.8327954967189887	0.8327954967189894	-0.1250220524211988	-0.1595525187599101	0.1254117905161831	-0.02609952983252553	-0.7370687737303877	-0.1934872994481725	-0.5304916073998083	2.417397670870146	-0.2013452977901948	0.7435377962981541	-0.10583989153561	1.990198350897949	1.990198350897947	0.1331121721048417	-0.08822384831638921	0.485211950341496	0.01912773433415636	-0.1689768307461749	0.0292010680158157	-0.01161810733408424	-0.2244511207336269	0.06475776992392519	0.0367115964462791	0.1678055812870667	-12.23154093708171	-16.81027790317685	5.78005732194951	-6.121787464410978	-525.9635972193364	-56.35650479068089	-23.94946672190061	0.8199542595981055	0.5967138059870398	-0.392875284734459	-1.537952022426228	0.7156426604185714	-0.1718477732546816	1.040095366168379	-1.458062054036998	-1.45806205403663	-0.04620416601635636	0.2360892408468779	-0.5732185233271255	0.4930238217206795	-5.46832392735835e-07	-3.209644021846272e-07	2.901333397702887e-06	1.764995199331839e-07	-6.195121606388758e-07	3.045063363965848e-08	-4.482339684842509e-07
0.52	-0.3427689572341372	-0.0360153772221661	0.7511550583708813	1.129138027442884	-0.4413976867718665	-0.2068814417499985	-0.256369286068118	0.8526220984265728	0.8526220984265754	-0.1236912550093	-0.1604229249121684	0.1302346880702182	-0.02588287420925169	-0.7285893298169008	-0.1874795002965536	-0.5340822630291181	2.401115601878917	-0.1940214928516056	0.7413117085090991	-0.09551154899659002	1.974850145627302	1.974850145627303	0.1330307987577747	-0.08583988107240492	0.4792879451402571	0.0241902003435252	-0.1743783812819052	0.03010896855910229	-0.01167628329098597	-0.2270793363033078	0.06379518670953389	0.0370141093680906	0.1719339083573214	-12.73676243865195	-16.82154227264346	5.745694871288274	-5.980372812471508	-529.6034049248445	-56.01572549295003	-23.02697096278231	0.8684510392653205	0.6041484176621116	-0.3256580413761446	-1.704353763815512	0.7615892537312383	-0.2965909492812345	1.033207319124454	-1.606964683362473	-1.606964683362473	0.0728526832015071	0.2366102214310714	-0.6068906299329503	0.537202822460627	-5.325040230438319e-07	-2.228325938447952e-07	2.943134448216811e-06	2.00946782871908e-07	-5.994497713551015e-07	1.111759859554444e-07	-4.410911956563667e-07
0.53	-0.3500098703429748	-0.03785980436883355	0.7457991320908313	1.153059599916875	-0.4433009484464664	-0.1994815034149703	-0.2572738162073132	0.8722872807096483	0.8722872807096502	-0.1223618326126457	-0.1612687702199008	0.1349960449673793	-0.02561602126205493	-0.7194991314828992	-0.1813962442880885	-0.5369864818201311	2.38288076950822	-0.1866225043326781	0.7385762241618388	-0.08543833787617691	1.957927715114061	1.95792771511406	0.1328396306398042	-0.08332441802518006	0.4729090858922664	0.02916072424819022	-0.1796164491692848	0.0306612543764964	-0.01167982318566001	-0.229869525884522	0.06294628727143135	0.03726237596382712	0.1759045334500416	-13.20780738202303	-16.81262993683879	5.705142221851808	-5.795454648157796	-533.2234886249131	-55.70068199792051	-22.10749147694167	0.9433581521187034	0.6119096623201078	-0.2554449062383347	-1.930848570808378	0.7299345919060852	-0.2773674152665512	0.9877991534392796	-1.773584148479562	-1.773584148479885	-0.06713906666375198	0.2603209318556219	-0.6645184987932062	0.4737084873100729	-5.148127917043635e-07	-1.278043814599145e-07	2.964623581599086e-06	2.248645838231721e-07	-5.789025500264807e-07	1.904231927333382e-07	-4.310514083196186e-07
